<?xml version="1.0" encoding="UTF-8" standalone="no"?>
<!-- Generator: Adobe Illustrator 16.0.0, SVG Export Plug-In . SVG Version: 6.00 Build 0)  -->

<svg
   xmlns:dc="http://purl.org/dc/elements/1.1/"
   xmlns:cc="http://creativecommons.org/ns#"
   xmlns:rdf="http://www.w3.org/1999/02/22-rdf-syntax-ns#"
   xmlns:svg="http://www.w3.org/2000/svg"
   xmlns="http://www.w3.org/2000/svg"
   xmlns:sodipodi="http://sodipodi.sourceforge.net/DTD/sodipodi-0.dtd"
   xmlns:inkscape="http://www.inkscape.org/namespaces/inkscape"
   version="1.1"
   id="Capa_1"
   x="0px"
   y="0px"
   width="236.43436"
   height="638.4234"
   viewBox="0 0 236.43436 638.42341"
   xml:space="preserve"
   sodipodi:docname="papeis.svg"
   inkscape:version="0.92.4 (5da689c313, 2019-01-14)"><metadata
   id="metadata969"><rdf:RDF><cc:Work
       rdf:about=""><dc:format>image/svg+xml</dc:format><dc:type
         rdf:resource="http://purl.org/dc/dcmitype/StillImage" /><dc:title></dc:title></cc:Work></rdf:RDF></metadata><defs
   id="defs967">
	

		
		
		
		
		
	</defs><sodipodi:namedview
   pagecolor="#ffffff"
   bordercolor="#666666"
   borderopacity="1"
   objecttolerance="10"
   gridtolerance="10"
   guidetolerance="10"
   inkscape:pageopacity="0"
   inkscape:pageshadow="2"
   inkscape:window-width="1842"
   inkscape:window-height="1009"
   id="namedview965"
   showgrid="false"
   inkscape:zoom="1.6131073"
   inkscape:cx="196.02945"
   inkscape:cy="205.78337"
   inkscape:window-x="78"
   inkscape:window-y="34"
   inkscape:window-maximized="1"
   inkscape:current-layer="layer1" />

<g
   id="g934"
   transform="translate(-19.023713,449.41472)">
</g>
<g
   id="g936"
   transform="translate(-19.023713,449.41472)">
</g>
<g
   id="g938"
   transform="translate(-19.023713,449.41472)">
</g>
<g
   id="g940"
   transform="translate(-19.023713,449.41472)">
</g>
<g
   id="g942"
   transform="translate(-19.023713,449.41472)">
</g>
<g
   id="g944"
   transform="translate(-19.023713,449.41472)">
</g>
<g
   id="g946"
   transform="translate(-19.023713,449.41472)">
</g>
<g
   id="g948"
   transform="translate(-19.023713,449.41472)">
</g>
<g
   id="g950"
   transform="translate(-19.023713,449.41472)">
</g>
<g
   id="g952"
   transform="translate(-19.023713,449.41472)">
</g>
<g
   id="g954"
   transform="translate(-19.023713,449.41472)">
</g>
<g
   id="g956"
   transform="translate(-19.023713,449.41472)">
</g>
<g
   id="g958"
   transform="translate(-19.023713,449.41472)">
</g>
<g
   id="g960"
   transform="translate(-19.023713,449.41472)">
</g>
<g
   id="g962"
   transform="translate(-19.023713,449.41472)">
</g>
<text
   xml:space="preserve"
   style="font-style:normal;font-variant:normal;font-weight:normal;font-stretch:normal;font-size:18.66666603px;line-height:1.25;font-family:serif;-inkscape-font-specification:serif;letter-spacing:0px;word-spacing:0px;fill:#000000;fill-opacity:1;stroke:none"
   x="-6.4211264"
   y="481.68823"
   id="text1068"><tspan
     sodipodi:role="line"
     id="tspan1066"
     x="-6.4211264"
     y="498.20386" /></text>
<g
   inkscape:groupmode="layer"
   id="layer1"
   inkscape:label="Texto"
   transform="translate(-18.530023,234.34148)"><text
     xml:space="preserve"
     style="font-style:normal;font-variant:normal;font-weight:normal;font-stretch:normal;font-size:16px;line-height:1em;font-family:serif;-inkscape-font-specification:serif;letter-spacing:0px;word-spacing:0px;fill:#000000;fill-opacity:1;stroke:none"
     x="133.57292"
     y="370.02463"
     id="text1072"><tspan
       sodipodi:role="line"
       x="133.57292"
       y="370.02463"
       style="font-style:normal;font-variant:normal;font-weight:normal;font-stretch:normal;font-size:10.66666698px;line-height:0.5;font-family:monospace;-inkscape-font-specification:monospace;text-align:center;text-anchor:middle"
       id="tspan1084">Gerência do projeto</tspan><tspan
       sodipodi:role="line"
       x="133.57292"
       y="386.02463"
       style="font-style:normal;font-variant:normal;font-weight:normal;font-stretch:normal;font-size:10.66666698px;line-height:0.5;font-family:monospace;-inkscape-font-specification:monospace;text-align:center;text-anchor:middle"
       id="tspan1088">Gerência do repositório</tspan><tspan
       sodipodi:role="line"
       x="133.57292"
       y="402.02463"
       id="tspan1076"
       style="font-style:normal;font-variant:normal;font-weight:normal;font-stretch:normal;font-size:10.66666698px;line-height:0.5;font-family:monospace;-inkscape-font-specification:monospace;text-align:center;text-anchor:middle">Liderança técnica</tspan></text>
<text
     xml:space="preserve"
     style="font-style:normal;font-variant:normal;font-weight:normal;font-stretch:normal;font-size:16px;line-height:1em;font-family:serif;-inkscape-font-specification:serif;letter-spacing:0px;word-spacing:0px;fill:#000000;fill-opacity:1;stroke:none"
     x="65.941483"
     y="196.55383"
     id="text1072-7"><tspan
       sodipodi:role="line"
       x="65.941483"
       y="196.55383"
       style="font-style:normal;font-variant:normal;font-weight:normal;font-stretch:normal;font-size:10.66666698px;line-height:0.5;font-family:monospace;-inkscape-font-specification:monospace;text-align:center;text-anchor:middle"
       id="tspan1084-5">Desenvolvimento</tspan><tspan
       sodipodi:role="line"
       x="65.941483"
       y="212.55383"
       style="font-style:normal;font-variant:normal;font-weight:normal;font-stretch:normal;font-size:10.66666698px;line-height:0.5;font-family:monospace;-inkscape-font-specification:monospace;text-align:center;text-anchor:middle"
       id="tspan1088-4">Criação de arte</tspan><tspan
       sodipodi:role="line"
       x="65.941483"
       y="228.55383"
       id="tspan1076-8"
       style="font-style:normal;font-variant:normal;font-weight:normal;font-stretch:normal;font-size:10.66666698px;line-height:0.5;font-family:monospace;-inkscape-font-specification:monospace;text-align:center;text-anchor:middle" /></text>
<text
     xml:space="preserve"
     style="font-style:normal;font-variant:normal;font-weight:normal;font-stretch:normal;font-size:16px;line-height:1em;font-family:serif;-inkscape-font-specification:serif;letter-spacing:0px;word-spacing:0px;fill:#000000;fill-opacity:1;stroke:none"
     x="75.754028"
     y="-124.17504"
     id="text1072-7-1-3"><tspan
       sodipodi:role="line"
       x="75.754028"
       y="-124.17504"
       style="font-style:normal;font-variant:normal;font-weight:normal;font-stretch:normal;font-size:10.66666698px;line-height:0.5;font-family:monospace;-inkscape-font-specification:monospace;text-align:center;text-anchor:middle"
       id="tspan1084-5-2-6">Desenvolvimento</tspan><tspan
       sodipodi:role="line"
       x="75.754028"
       y="-108.17504"
       style="font-style:normal;font-variant:normal;font-weight:normal;font-stretch:normal;font-size:10.66666698px;line-height:0.5;font-family:monospace;-inkscape-font-specification:monospace;text-align:center;text-anchor:middle"
       id="tspan1088-4-8-8">Criação de efeitos</tspan><tspan
       sodipodi:role="line"
       x="75.754028"
       y="-92.175041"
       id="tspan1076-8-9-0"
       style="font-style:normal;font-variant:normal;font-weight:normal;font-stretch:normal;font-size:10.66666698px;line-height:0.5;font-family:monospace;-inkscape-font-specification:monospace;text-align:center;text-anchor:middle" /></text>
<text
     xml:space="preserve"
     style="font-style:normal;font-variant:normal;font-weight:normal;font-stretch:normal;font-size:16px;line-height:1em;font-family:serif;-inkscape-font-specification:serif;letter-spacing:0px;word-spacing:0px;fill:#000000;fill-opacity:1;stroke:none"
     x="144.73199"
     y="-38.943054"
     id="text1072-7-1-3-2"><tspan
       sodipodi:role="line"
       x="144.73199"
       y="-38.943054"
       style="font-style:normal;font-variant:normal;font-weight:normal;font-stretch:normal;font-size:10.66666698px;line-height:0.5;font-family:monospace;-inkscape-font-specification:monospace;text-align:center;text-anchor:middle"
       id="tspan1088-4-8-8-0">Desenvolvimento</tspan><tspan
       sodipodi:role="line"
       x="144.73199"
       y="-22.943054"
       id="tspan1076-8-9-0-5"
       style="font-style:normal;font-variant:normal;font-weight:normal;font-stretch:normal;font-size:10.66666698px;line-height:0.5;font-family:monospace;-inkscape-font-specification:monospace;text-align:center;text-anchor:middle" /></text>
<text
     xml:space="preserve"
     style="font-style:normal;font-variant:normal;font-weight:normal;font-stretch:normal;font-size:16px;line-height:1em;font-family:serif;-inkscape-font-specification:serif;letter-spacing:0px;word-spacing:0px;fill:#000000;fill-opacity:1;stroke:none"
     x="183.75716"
     y="148.24805"
     id="text1072-7-1"><tspan
       sodipodi:role="line"
       x="183.75716"
       y="148.24805"
       style="font-style:normal;font-variant:normal;font-weight:normal;font-stretch:normal;font-size:10.66666698px;line-height:0.5;font-family:monospace;-inkscape-font-specification:monospace;text-align:center;text-anchor:middle"
       id="tspan1084-5-2">Desenvolvimento</tspan><tspan
       sodipodi:role="line"
       x="183.75716"
       y="164.24805"
       style="font-style:normal;font-variant:normal;font-weight:normal;font-stretch:normal;font-size:10.66666698px;line-height:0.5;font-family:monospace;-inkscape-font-specification:monospace;text-align:center;text-anchor:middle"
       id="tspan1088-4-8">Criação musical</tspan><tspan
       sodipodi:role="line"
       x="183.75716"
       y="180.24805"
       id="tspan1076-8-9"
       style="font-style:normal;font-variant:normal;font-weight:normal;font-stretch:normal;font-size:10.66666698px;line-height:0.5;font-family:monospace;-inkscape-font-specification:monospace;text-align:center;text-anchor:middle" /></text>
<text
     xml:space="preserve"
     style="font-style:normal;font-variant:normal;font-weight:normal;font-stretch:normal;font-size:16px;line-height:1em;font-family:serif;-inkscape-font-specification:serif;letter-spacing:0px;word-spacing:0px;fill:#000000;fill-opacity:1;stroke:none"
     x="66.174881"
     y="98.08786"
     id="text1072-7-1-3-2-1"><tspan
       sodipodi:role="line"
       x="66.174881"
       y="98.08786"
       style="font-style:normal;font-variant:normal;font-weight:normal;font-stretch:normal;font-size:10.66666698px;line-height:0.5;font-family:monospace;-inkscape-font-specification:monospace;text-align:center;text-anchor:middle"
       id="tspan1088-4-8-8-0-1">Desenvolvimento</tspan><tspan
       sodipodi:role="line"
       x="66.174881"
       y="114.08786"
       id="tspan1076-8-9-0-5-0"
       style="font-style:normal;font-variant:normal;font-weight:normal;font-stretch:normal;font-size:10.66666698px;line-height:0.5;font-family:monospace;-inkscape-font-specification:monospace;text-align:center;text-anchor:middle" /></text>
<text
     xml:space="preserve"
     style="font-style:normal;font-variant:normal;font-weight:normal;font-stretch:normal;font-size:16px;line-height:1em;font-family:serif;-inkscape-font-specification:serif;letter-spacing:0px;word-spacing:0px;fill:#000000;fill-opacity:1;stroke:none"
     x="207.54771"
     y="70.884094"
     id="text1072-7-1-3-2-8"><tspan
       sodipodi:role="line"
       x="207.54771"
       y="70.884094"
       style="font-style:normal;font-variant:normal;font-weight:normal;font-stretch:normal;font-size:10.66666698px;line-height:0.5;font-family:monospace;-inkscape-font-specification:monospace;text-align:center;text-anchor:middle"
       id="tspan1088-4-8-8-0-5">Desenvolvimento</tspan><tspan
       sodipodi:role="line"
       x="207.54771"
       y="86.884094"
       id="tspan1076-8-9-0-5-06"
       style="font-style:normal;font-variant:normal;font-weight:normal;font-stretch:normal;font-size:10.66666698px;line-height:0.5;font-family:monospace;-inkscape-font-specification:monospace;text-align:center;text-anchor:middle" /></text>
<text
     xml:space="preserve"
     style="font-style:normal;font-variant:normal;font-weight:normal;font-stretch:normal;font-size:16px;line-height:1em;font-family:serif;-inkscape-font-specification:serif;letter-spacing:0px;word-spacing:0px;fill:#000000;fill-opacity:1;stroke:none"
     x="186.52652"
     y="-173.11195"
     id="text1072-7-1-3-2-4"><tspan
       sodipodi:role="line"
       x="186.52652"
       y="-173.11195"
       style="font-style:normal;font-variant:normal;font-weight:normal;font-stretch:normal;font-size:10.66666698px;line-height:0.5;font-family:monospace;-inkscape-font-specification:monospace;text-align:center;text-anchor:middle"
       id="tspan1088-4-8-8-0-6">Desenvolvimento</tspan><tspan
       sodipodi:role="line"
       x="186.52652"
       y="-157.11195"
       id="tspan1076-8-9-0-5-2"
       style="font-style:normal;font-variant:normal;font-weight:normal;font-stretch:normal;font-size:10.66666698px;line-height:0.5;font-family:monospace;-inkscape-font-specification:monospace;text-align:center;text-anchor:middle">Direção de arte</tspan></text>
<text
     xml:space="preserve"
     style="font-style:normal;font-variant:normal;font-weight:normal;font-stretch:normal;font-size:16px;line-height:1em;font-family:serif;-inkscape-font-specification:serif;letter-spacing:0px;word-spacing:0px;fill:#000000;fill-opacity:1;stroke:none"
     x="92.49604"
     y="-226.18002"
     id="text1072-7-1-3-2-11"><tspan
       sodipodi:role="line"
       x="92.49604"
       y="-226.18002"
       style="font-style:normal;font-variant:normal;font-weight:normal;font-stretch:normal;font-size:10.66666698px;line-height:0.5;font-family:monospace;-inkscape-font-specification:monospace;text-align:center;text-anchor:middle"
       id="tspan1088-4-8-8-0-0">Desenvolvimento</tspan><tspan
       sodipodi:role="line"
       x="92.49604"
       y="-210.18002"
       id="tspan1076-8-9-0-5-3"
       style="font-style:normal;font-variant:normal;font-weight:normal;font-stretch:normal;font-size:10.66666698px;line-height:0.5;font-family:monospace;-inkscape-font-specification:monospace;text-align:center;text-anchor:middle" /></text>
<path
     d="m 77.536268,-220.92341 c -0.40381,-0.19528 -1.05171,-0.13314 -1.50877,-0.27953 -0.43935,-0.15532 -0.55913,-0.83874 -1.23365,-1.14489 -0.67007,-0.31064 -2.2321,-0.46596 -3.56338,-0.46596 -12.638215,0 -12.380835,14.47095 -12.185585,18.85528 0.11094,2.56936 0.85642,5.14315 1.07832,6.78949 l -0.7544,8.23615 h 11.213765 v -1.95253 l -3.48794,-6.28362 1.26914,-0.60793 h 0.0182 v -3.55011 c -5.34772,-0.68782 -7.149365,-5.36503 -7.286945,-8.84854 l 0.0269,-1.16708 c 0.10209,-1.38452 0.48814,-2.43623 1.00733,-2.68029 4.162445,-0.37279 9.154725,-0.51918 12.673715,-3.43025 0.25292,3.05305 3.39919,5.24965 6.18599,5.44047 0.0225,0.19528 0.0485,0.39497 0.0711,0.59467 l -0.0355,1.16708 c -0.31506,4.16245 -3.15512,7.60158 -7.01137,8.79972 v 3.80301 l 1.00289,0.25291 -3.57225,6.76731 0.0399,1.69072 h 11.74157 l -0.57248,-6.54543 0.92302,-15.08777 c -0.004,0.004 0.21304,-7.33976 -6.03955,-10.35288 z"
     id="path926-4-4"
     inkscape:connector-curvature="0"
     style="stroke-width:4.43757915" /><path
     d="m 106.03138,-219.49866 c -0.40381,-0.19527 -1.05171,-0.13313 -1.50877,-0.27952 -0.43935,-0.15532 -0.55913,-0.83874 -1.23364,-1.14489 -0.67008,-0.31064 -2.23211,-0.46596 -3.563392,-0.46596 -12.63822,0 -12.38084,14.47095 -12.18558,18.85528 0.11094,2.56935 0.85642,5.14315 1.07832,6.78949 l -0.75441,8.23615 h 11.21377 v -1.95253 l -3.48794,-6.28362 1.26914,-0.60793 h 0.0173 v -3.55011 c -5.34729,-0.68783 -7.14895,-5.36504 -7.28652,-8.84854 l 0.0269,-1.16708 c 0.1021,-1.38453 0.48814,-2.43623 1.00733,-2.6803 4.16245,-0.37278 9.15473,-0.51917 12.673722,-3.43025 0.25292,3.05306 3.39919,5.24965 6.18599,5.44048 0.0225,0.19527 0.0485,0.39497 0.0711,0.59466 l -0.0355,1.16708 c -0.31506,4.16246 -3.15512,7.60158 -7.01138,8.79973 v 3.803 l 1.0029,0.25292 -3.572252,6.76731 0.0399,1.69072 H 111.7202 l -0.57248,-6.54544 0.92302,-15.08777 c -0.004,0.004 0.21304,-7.33975 -6.03955,-10.35287 z"
     id="path926-7-0"
     inkscape:connector-curvature="0"
     style="stroke-width:4.43757915" /><text
     xml:space="preserve"
     style="font-style:normal;font-variant:normal;font-weight:normal;font-stretch:normal;font-size:16px;line-height:1em;font-family:serif;-inkscape-font-specification:serif;letter-spacing:0px;word-spacing:0px;fill:#000000;fill-opacity:1;stroke:none"
     x="184.04648"
     y="227.24866"
     id="text1072-7-1-3-2-3"><tspan
       sodipodi:role="line"
       x="184.04648"
       y="227.24866"
       style="font-style:normal;font-variant:normal;font-weight:normal;font-stretch:normal;font-size:10.66666698px;line-height:0.5;font-family:monospace;-inkscape-font-specification:monospace;text-align:center;text-anchor:middle"
       id="tspan1088-4-8-8-0-9">Desenvolvimento</tspan><tspan
       sodipodi:role="line"
       x="184.04648"
       y="243.24866"
       id="tspan1076-8-9-0-5-1"
       style="font-style:normal;font-variant:normal;font-weight:normal;font-stretch:normal;font-size:10.66666698px;line-height:0.5;font-family:monospace;-inkscape-font-specification:monospace;text-align:center;text-anchor:middle" /></text>
<path
     d="m 165.36717,238.7045 c -0.40381,-0.19528 -1.05171,-0.13314 -1.50877,-0.27953 -0.43935,-0.15532 -0.55913,-0.83874 -1.23365,-1.14489 -0.67007,-0.31064 -2.2321,-0.46596 -3.56338,-0.46596 -12.63822,0 -12.38084,14.47095 -12.18559,18.85528 0.11094,2.56936 0.85642,5.14315 1.07833,6.78949 l -0.75441,8.23615 h 11.21377 v -1.95253 l -3.48794,-6.28362 1.26914,-0.60793 h 0.0182 v -3.55011 c -5.34772,-0.68782 -7.14937,-5.36503 -7.28694,-8.84854 l 0.0269,-1.16708 c 0.1021,-1.38452 0.48814,-2.43623 1.00733,-2.68029 4.16245,-0.37279 9.15473,-0.51918 12.67372,-3.43025 0.25292,3.05305 3.39919,5.24965 6.18599,5.44047 0.0225,0.19528 0.0485,0.39497 0.0711,0.59467 l -0.0355,1.16708 c -0.31506,4.16245 -3.15512,7.60158 -7.01137,8.79972 v 3.80301 l 1.00289,0.25291 -3.57225,6.76731 0.0399,1.69072 h 11.74157 l -0.57248,-6.54543 0.92302,-15.08777 c -0.004,0.004 0.21304,-7.33976 -6.03955,-10.35288 z"
     id="path926-4-9"
     inkscape:connector-curvature="0"
     style="stroke-width:4.43757915" /><path
     d="m 197.58181,233.93003 c -0.40381,-0.19527 -1.05171,-0.13313 -1.50877,-0.27952 -0.43935,-0.15532 -0.55913,-0.83874 -1.23364,-1.14489 -0.67008,-0.31064 -2.23211,-0.46596 -3.56339,-0.46596 -12.63822,0 -12.38084,14.47095 -12.18558,18.85528 0.11094,2.56935 0.85642,5.14315 1.07832,6.78949 l -0.75441,8.23615 h 11.21377 v -1.95253 l -3.48794,-6.28362 1.26914,-0.60793 h 0.0173 v -3.55011 c -5.34729,-0.68783 -7.14895,-5.36504 -7.28652,-8.84854 l 0.0269,-1.16708 c 0.1021,-1.38453 0.48814,-2.43623 1.00733,-2.6803 4.16245,-0.37278 9.15473,-0.51917 12.67372,-3.43025 0.25292,3.05306 3.39919,5.24965 6.18599,5.44048 0.0225,0.19527 0.0485,0.39497 0.0711,0.59466 l -0.0355,1.16708 c -0.31506,4.16246 -3.15512,7.60158 -7.01138,8.79973 v 3.803 l 1.0029,0.25292 -3.57225,6.76731 0.0399,1.69072 h 11.74183 l -0.57248,-6.54544 0.92302,-15.08777 c -0.004,0.004 0.21304,-7.33975 -6.03955,-10.35287 z"
     id="path926-7-6"
     inkscape:connector-curvature="0"
     style="stroke-width:4.43757915" /></g><g
   inkscape:groupmode="layer"
   id="layer3"
   inkscape:label="Icones"
   transform="translate(-18.530023,234.34148)"><path
     d="m 131.24033,292.65356 c -2.51064,0.005 -5.45573,0.31315 -6.73378,0.88403 -1.27805,0.57083 -1.50032,1.87415 -2.33384,2.16208 -0.85876,0.28793 -2.0863,0.17179 -2.84405,0.53547 -11.81063,5.69316 -11.4065,19.58 -11.4065,19.58 l 1.74785,28.51121 -1.08609,12.36631 h 22.18662 l 0.0806,-3.19261 -6.74388,-12.79064 1.88424,-0.47991 v -7.18337 c -7.28419,-2.28332 -12.64898,-8.77462 -13.25012,-16.65005 l 4.99098,0.72233 v 3.05117 h 13.09374 v -2.15198 h 2.30858 v 2.15198 h 13.08363 v -2.97539 l 4.17262,-0.64156 c -0.24754,6.58728 -3.65735,15.40737 -13.76055,16.72584 v 6.70346 h 0.0303 l 2.40456,1.14671 -6.59233,11.87126 v 3.69777 h 21.1864 l -1.42455,-15.57912 c 0.41932,-3.09664 1.82867,-7.96132 2.03579,-12.82601 0.36879,-8.29472 0.84359,-35.63901 -23.03023,-35.63901 z m -1.8792,26.05614 h -10.17896 v -5.18293 h 10.18402 v 5.18293 z m 15.40232,0 h -10.17896 v -5.18293 h 10.17896 z m 5.57192,-4.36458 -4.12211,0.64156 v -2.90971 h -13.08363 v 3.03095 h -2.30858 v -3.03095 h -13.09374 v 2.84404 l -5.05665,-0.73248 c 0.0451,-0.3688 0.096,-0.73751 0.13131,-1.11135 5.26377,-0.35865 11.2095,-4.50603 11.67424,-10.27495 6.65296,5.51635 16.08934,5.78408 23.95973,6.48625 0.97496,0.45972 1.69734,2.44497 1.8994,5.05665 z"
     id="path920"
     inkscape:connector-curvature="0"
     style="stroke-width:5.05159712" /><path
     d="m 59.063915,144.02343 c -0.403822,-0.19528 -1.051706,-0.13313 -1.508777,-0.27952 -0.439323,-0.15532 -0.559132,-0.83866 -1.233647,-1.14489 -0.674512,-0.31064 -2.232102,-0.46596 -3.563376,-0.46596 -12.638226,0 -12.380847,14.47095 -12.185593,18.85527 0.11094,2.56936 0.856452,5.14315 1.078332,6.7895 l -0.754389,8.23615 h 11.213764 v -1.95254 l -3.487938,-6.28361 1.269147,-0.60793 h 0.01777 v -3.55012 c -5.347301,-0.68782 -7.148958,-5.36503 -7.282085,-8.84853 l 0.02663,-1.16708 c 0.102064,-1.38453 0.488133,-2.43624 1.002893,-2.6803 4.166887,-0.37278 9.159164,-0.51918 12.678165,-3.43025 0.248502,3.05305 3.394748,5.24965 6.181548,5.44047 0.02219,0.19528 0.0488,0.39498 0.07099,0.59467 l -0.03554,1.17152 c -0.315067,4.16245 -3.155119,7.60158 -7.011375,8.80416 v 3.79857 l 0.998456,0.25742 -3.567815,6.76287 0.03996,1.69072 h 11.737397 l -0.572445,-6.54987 0.923016,-15.08333 c 0,0 0.213,-7.3442 -6.035108,-10.35731 z"
     id="path922"
     inkscape:connector-curvature="0"
     style="stroke-width:4.43757915" /><path
     d="m 87.524596,150.19737 c -0.403821,-0.19528 -1.051707,-0.13313 -1.508777,-0.27952 -0.439323,-0.15532 -0.559132,-0.83874 -1.233647,-1.14489 -0.674512,-0.31068 -2.232102,-0.46599 -3.563376,-0.46599 -12.638226,0 -12.380847,14.47094 -12.185592,18.85527 0.110942,2.56936 0.856449,5.14315 1.078331,6.78949 l -0.754391,8.23616 h 11.213763 v -1.95254 l -3.487938,-6.28362 1.269148,-0.60793 h 0.01777 v -3.55007 c -5.347298,-0.68783 -7.148955,-5.36504 -7.282083,-8.84854 l 0.02661,-1.16708 c 0.102067,-1.38453 0.488138,-2.43623 1.002893,-2.6803 4.166887,-0.37278 9.159164,-0.51917 12.678165,-3.43025 0.248502,3.05306 3.394747,5.24965 6.181547,5.44048 0.02219,0.19527 0.0488,0.39497 0.07099,0.59466 l -0.03554,1.17152 c -0.314998,4.16242 -3.155052,7.60155 -7.011308,8.80413 v 3.79857 l 0.998455,0.25742 -3.567813,6.76287 0.03996,1.69072 h 11.741828 l -0.572445,-6.54987 0.923017,-15.08334 c 0.0044,0 0.221876,-7.34419 -6.039546,-10.35731 z"
     id="path924"
     inkscape:connector-curvature="0"
     style="stroke-width:4.43757915" /><path
     d="m 56.928036,47.791478 c -0.403813,-0.19527 -1.051708,-0.13313 -1.508773,-0.27952 -0.439349,-0.15532 -0.559132,-0.83874 -1.233644,-1.14489 -0.670075,-0.31064 -2.232109,-0.46596 -3.563382,-0.46596 -12.638225,0 -12.380845,14.47095 -12.185591,18.85528 0.110942,2.56935 0.856449,5.143146 1.078331,6.789482 l -0.754391,8.23615 h 11.213765 v -1.95253 l -3.487939,-6.28362 1.269147,-0.60793 h 0.01777 v -3.550102 c -5.347298,-0.68783 -7.148955,-5.36504 -7.28652,-8.84854 l 0.02661,-1.16708 c 0.102067,-1.38452 0.488129,-2.43623 1.007329,-2.6803 4.16245,-0.37278 9.154727,-0.51917 12.673723,-3.43025 0.252914,3.05306 3.399187,5.24966 6.18599,5.44048 0.02253,0.19527 0.04854,0.39497 0.07107,0.59466 l -0.03554,1.16708 c -0.315059,4.16246 -3.155123,7.60158 -7.011375,8.79973 v 3.802992 l 1.002893,0.25292 -3.572249,6.76731 0.03987,1.69072 H 62.616966 L 62.044486,73.23212 62.9675,58.144358 c -0.0044,0.004 0.213044,-7.33975 -6.039545,-10.35287 z"
     id="path926"
     inkscape:connector-curvature="0"
     style="stroke-width:4.43757915" /><path
     d="m 85.631489,52.802168 c -0.40381,-0.19528 -1.05171,-0.13313 -1.50877,-0.27953 -0.43935,-0.15531 -0.55913,-0.83874 -1.23365,-1.14489 -0.67007,-0.31063 -2.232104,-0.46595 -3.563378,-0.46595 -12.638225,0 -12.380846,14.47094 -12.185592,18.855266 0.110942,2.569356 0.856449,5.143146 1.078331,6.789486 l -0.754391,8.23616 h 11.213766 v -1.95254 l -3.48794,-6.28362 1.269148,-0.60793 h 0.01777 v -3.55011 c -5.347299,-0.68782 -7.148956,-5.365022 -7.286521,-8.848522 l 0.02661,-1.16708 c 0.102067,-1.38453 0.488129,-2.43624 1.00733,-2.6803 4.162449,-0.37279 9.154727,-0.51918 12.673727,-3.43025 0.25291,3.05305 3.39918,5.24965 6.18599,5.44047 0.0225,0.19528 0.0485,0.39497 0.0711,0.59467 l -0.0355,1.16708 c -0.31506,4.162446 -3.15513,7.601572 -7.01138,8.799712 v 3.80301 l 1.00289,0.25291 -3.572244,6.76731 0.03987,1.69072 h 11.741834 l -0.57248,-6.54543 0.92301,-15.087762 c -0.004,0.004 0.21305,-7.33976 -6.03954,-10.35287 z"
     id="path926-5"
     inkscape:connector-curvature="0"
     style="stroke-width:4.43757915" /><path
     d="m 129.77222,-33.686432 c -0.40381,-0.19528 -1.05171,-0.13314 -1.50877,-0.27953 -0.43935,-0.15532 -0.55913,-0.83874 -1.23365,-1.14489 -0.67007,-0.31064 -2.2321,-0.46596 -3.56338,-0.46596 -12.63822,0 -12.38084,14.47095 -12.18559,18.85528 0.11094,2.56936 0.85642,5.14315 1.07833,6.78949 l -0.75441,8.23615 h 11.21377 v -1.95253 l -3.48794,-6.28362 1.26914,-0.60793 h 0.0182 v -3.55011 c -5.34772,-0.68782 -7.14937,-5.36503 -7.28694,-8.84854 l 0.0269,-1.16708 c 0.1021,-1.38452 0.48814,-2.43623 1.00733,-2.68029 4.16245,-0.37279 9.15473,-0.51918 12.67372,-3.43025 0.25292,3.05305 3.39919,5.24965 6.18599,5.44047 0.0225,0.19528 0.0485,0.39497 0.0711,0.59467 l -0.0355,1.16708 c -0.31506,4.16245 -3.15512,7.60158 -7.01137,8.79972 v 3.80301 l 1.00289,0.25291 -3.57225,6.76731 0.0399,1.69072 h 11.74157 l -0.57248,-6.54543 0.92302,-15.08777 c -0.004,0.004 0.21304,-7.33976 -6.03955,-10.35288 z"
     id="path926-4"
     inkscape:connector-curvature="0"
     style="stroke-width:4.43757915" /><path
     d="m 158.26733,-32.261682 c -0.40381,-0.19527 -1.05171,-0.13313 -1.50877,-0.27952 -0.43935,-0.15532 -0.55913,-0.83874 -1.23364,-1.14489 -0.67008,-0.31064 -2.23211,-0.46596 -3.56339,-0.46596 -12.63822,0 -12.38084,14.47095 -12.18558,18.85528 0.11094,2.56935 0.85642,5.14315 1.07832,6.78949 l -0.75441,8.23615 h 11.21377 v -1.95253 l -3.48794,-6.28362 1.26914,-0.60793 h 0.0173 v -3.55011 c -5.34729,-0.68783 -7.14895,-5.36504 -7.28652,-8.84854 l 0.0269,-1.16708 c 0.1021,-1.38453 0.48814,-2.43623 1.00733,-2.6803 4.16245,-0.37278 9.15473,-0.51917 12.67372,-3.43025 0.25292,3.05306 3.39919,5.24965 6.18599,5.44048 0.0225,0.19527 0.0485,0.39497 0.0711,0.59466 l -0.0355,1.16708 c -0.31506,4.16246 -3.15512,7.60158 -7.01138,8.79973 v 3.803 l 1.0029,0.25292 -3.57225,6.76731 0.0399,1.69072 h 11.74183 l -0.57248,-6.54544 0.92302,-15.08777 c -0.004,0.004 0.21304,-7.33975 -6.03955,-10.35287 z"
     id="path926-7"
     inkscape:connector-curvature="0"
     style="stroke-width:4.43757915" /><path
     d="m 204.82111,27.920697 c -0.40381,-0.19528 -1.0517,-0.13314 -1.50877,-0.27953 -0.43935,-0.15532 -0.55913,-0.83874 -1.23364,-1.14489 -0.67008,-0.31064 -2.23211,-0.46596 -3.56338,-0.46596 -12.63823,0 -12.38085,14.47095 -12.1856,18.85528 0.11094,2.56936 0.85642,5.14315 1.07833,6.78949 l -0.75441,8.23615 h 11.21377 v -1.95253 l -3.48794,-6.28362 1.26915,-0.60793 h 0.0182 v -3.55011 c -5.34772,-0.68782 -7.14937,-5.36503 -7.28694,-8.84854 l 0.0269,-1.16708 c 0.1021,-1.38452 0.48815,-2.43623 1.00733,-2.68029 4.16245,-0.37279 9.15473,-0.51918 12.67373,-3.43025 0.25291,3.05305 3.39918,5.24965 6.18599,5.44047 0.0225,0.19528 0.0485,0.39497 0.0711,0.59467 l -0.0355,1.16708 c -0.31506,4.16245 -3.15512,7.60158 -7.01137,8.79972 v 3.80301 l 1.00289,0.25291 -3.57225,6.76731 0.0399,1.69072 h 11.74184 l -0.57248,-6.54543 0.92301,-15.08777 c -0.004,0.004 0.21305,-7.33976 -6.03954,-10.35288 z"
     id="path926-8"
     inkscape:connector-curvature="0"
     style="stroke-width:4.43757915" /><path
     d="m 173.70577,104.94938 c -0.40381,-0.19527 -1.0517,-0.13313 -1.50877,-0.27952 -0.43935,-0.15532 -0.55913,-0.83874 -1.23364,-1.14489 -0.67008,-0.31063 -2.23211,-0.46595 -3.56338,-0.46595 -12.63823,0 -12.38085,14.47094 -12.1856,18.85527 0.11094,2.56936 0.85642,5.14315 1.07833,6.78949 l -0.7544,8.23615 h 11.21376 v -1.95253 l -3.48794,-6.28362 1.26915,-0.60793 h 0.0182 v -3.55011 c -5.3473,-0.68784 -7.14895,-5.36503 -7.28652,-8.84854 l 0.0269,-1.16708 c 0.1021,-1.38452 0.48814,-2.43623 1.00733,-2.6803 4.16245,-0.37278 9.15473,-0.51917 12.67372,-3.43025 0.25292,3.05306 3.39919,5.24966 6.18599,5.44048 0.0225,0.19527 0.0485,0.39497 0.0711,0.59467 l -0.0355,1.16708 c -0.31506,4.16245 -3.15512,7.60158 -7.01138,8.79972 v 3.80301 l 1.0029,0.25291 -3.57225,6.76731 0.0399,1.69072 h 11.74183 l -0.57248,-6.54544 0.92302,-15.08777 c -0.004,0.004 0.21304,-7.33975 -6.03955,-10.35287 z"
     id="path926-9"
     inkscape:connector-curvature="0"
     style="stroke-width:4.43757915" /><path
     d="m 205.52532,104.47447 c -0.40382,-0.19527 -1.05171,-0.13313 -1.50878,-0.27952 -0.43935,-0.15532 -0.55913,-0.83873 -1.23364,-1.14488 -0.67008,-0.31064 -2.23211,-0.46596 -3.56338,-0.46596 -12.63823,0 -12.38085,14.47094 -12.18559,18.85527 0.11094,2.56935 0.85642,5.14315 1.07833,6.78949 l -0.7544,8.23615 h 11.21375 v -1.95253 l -3.48794,-6.28362 1.26916,-0.60793 h 0.0173 v -3.55011 c -5.3473,-0.68785 -7.14896,-5.36504 -7.28652,-8.84854 l 0.0269,-1.16708 c 0.1021,-1.38452 0.48815,-2.43623 1.00733,-2.6803 4.16245,-0.37278 9.15472,-0.51917 12.67372,-3.43025 0.25291,3.05306 3.39918,5.24966 6.18599,5.44048 0.0225,0.19527 0.0485,0.39497 0.0711,0.59467 l -0.0355,1.16707 c -0.31506,4.16246 -3.15512,7.60158 -7.01137,8.79973 v 3.80301 l 1.00289,0.25291 -3.57225,6.76731 0.0399,1.69072 h 11.74184 l -0.57248,-6.54544 0.92301,-15.08777 c -0.004,0.004 0.21305,-7.33975 -6.03954,-10.35287 z"
     id="path926-0"
     inkscape:connector-curvature="0"
     style="stroke-width:4.43757915" /><path
     d="m 57.261309,-100.85025 c -0.403813,-0.19528 -1.051708,-0.13313 -1.508773,-0.27953 -0.439349,-0.15532 -0.559132,-0.83874 -1.233644,-1.14489 -0.670075,-0.31064 -2.232109,-0.46595 -3.563382,-0.46595 -12.638226,0 -12.380846,14.470941 -12.185592,18.855271 0.110942,2.56936 0.856449,5.14315 1.078331,6.78949 l -0.754391,8.23615 h 11.213766 v -1.95253 l -3.48794,-6.28362 1.269148,-0.60793 h 0.01777 v -3.55011 c -5.347299,-0.68782 -7.148956,-5.36503 -7.286521,-8.84854 l 0.02661,-1.16707 c 0.102067,-1.38453 0.488129,-2.43624 1.00733,-2.6803 4.16245,-0.37279 9.154727,-0.51918 12.673723,-3.43025 0.252914,3.05305 3.399187,5.24965 6.18599,5.44047 0.02254,0.19528 0.04854,0.39497 0.07107,0.59467 l -0.03554,1.16708 c -0.315059,4.16245 -3.155123,7.60158 -7.011375,8.79972 v 3.80301 l 1.002893,0.25291 -3.572248,6.76731 0.03987,1.69072 H 62.95024 l -0.57248,-6.54543 0.923014,-15.08777 c -0.0044,0.004 0.213044,-7.33976 -6.039545,-10.352881 z"
     id="path926-92"
     inkscape:connector-curvature="0"
     style="stroke-width:4.43757915" /><path
     d="m 89.666227,-102.27947 c -0.403813,-0.19528 -1.051707,-0.13313 -1.508773,-0.27953 -0.439349,-0.15532 -0.559132,-0.83874 -1.233644,-1.14489 -0.670074,-0.31063 -2.232108,-0.46595 -3.563382,-0.46595 -12.638225,0 -12.380846,14.470941 -12.185592,18.855271 0.110943,2.56936 0.856449,5.14315 1.078331,6.78949 l -0.75439,8.23616 h 11.213765 v -1.95254 l -3.48794,-6.28362 1.269149,-0.60793 h 0.01777 v -3.55011 c -5.3473,-0.68782 -7.148957,-5.36503 -7.286522,-8.84854 l 0.02661,-1.16707 c 0.102067,-1.38453 0.488129,-2.43624 1.00733,-2.6803 4.16245,-0.37279 9.154727,-0.51918 12.673723,-3.43025 0.252914,3.05305 3.399188,5.24965 6.18599,5.44047 0.02253,0.19528 0.04854,0.39497 0.07107,0.59467 l -0.03554,1.16708 c -0.315059,4.16245 -3.155122,7.60158 -7.011374,8.79972 v 3.80301 l 1.002892,0.25291 -3.572248,6.76731 0.03987,1.69072 h 11.741835 l -0.57248,-6.54543 0.923015,-15.08777 c -0.0044,0.004 0.213044,-7.33976 -6.039546,-10.352871 z"
     id="path926-95"
     inkscape:connector-curvature="0"
     style="stroke-width:4.43757915" /><path
     d="m 181.21642,-149.96846 c -0.40381,-0.19527 -1.0517,-0.13313 -1.50877,-0.27952 -0.43935,-0.15532 -0.55913,-0.83874 -1.23364,-1.14489 -0.67008,-0.31064 -2.23211,-0.46596 -3.56338,-0.46596 -12.63824,0 -12.38085,14.47095 -12.1856,18.85528 0.11094,2.56935 0.85642,5.14315 1.07833,6.78949 l -0.7544,8.23615 h 11.21376 v -1.95253 l -3.48794,-6.28362 1.26915,-0.60793 h 0.0173 v -3.55011 c -5.3473,-0.68785 -7.14895,-5.36504 -7.28652,-8.84854 l 0.0269,-1.16708 c 0.1021,-1.38453 0.48815,-2.43623 1.00733,-2.6803 4.16245,-0.37278 9.15473,-0.51917 12.67373,-3.43025 0.25291,3.05306 3.39918,5.24966 6.18599,5.44048 0.0225,0.19527 0.0485,0.39497 0.0711,0.59466 l -0.0355,1.16708 c -0.31506,4.16246 -3.15512,7.60158 -7.01137,8.79973 v 3.803 l 1.00289,0.25292 -3.57225,6.76731 0.0399,1.69072 h 11.74184 l -0.57248,-6.54544 0.92301,-15.08777 c -0.004,0.004 0.21305,-7.33975 -6.03954,-10.35287 z"
     id="path926-48"
     inkscape:connector-curvature="0"
     style="stroke-width:4.43757915" /><path
     d="m 210.66138,-143.79452 c -0.40382,-0.19527 -1.05171,-0.13313 -1.50878,-0.27952 -0.43935,-0.15532 -0.55913,-0.83874 -1.23364,-1.14489 -0.67008,-0.31064 -2.23211,-0.46596 -3.56338,-0.46596 -12.63823,0 -12.38085,14.47095 -12.18559,18.85528 0.11094,2.56936 0.85642,5.14315 1.07832,6.78949 l -0.7544,8.23615 h 11.21376 v -1.95253 l -3.48794,-6.28362 1.26915,-0.60793 h 0.0182 v -3.55011 c -5.34771,-0.68784 -7.14937,-5.36503 -7.28694,-8.84854 l 0.0269,-1.16708 c 0.1021,-1.38452 0.48815,-2.43623 1.00733,-2.6803 4.16246,-0.37278 9.15473,-0.51917 12.67373,-3.43025 0.25291,3.05306 3.39918,5.24966 6.18599,5.44048 0.0225,0.19527 0.0485,0.39497 0.0711,0.59467 l -0.0355,1.16708 c -0.31506,4.16245 -3.15512,7.60158 -7.01137,8.79972 v 3.80301 l 1.00289,0.25291 -3.57225,6.76731 0.0399,1.69072 h 11.74184 l -0.57248,-6.54544 0.92301,-15.08777 c -0.004,0.004 0.21305,-7.33975 -6.03954,-10.35287 z"
     id="path926-17"
     inkscape:connector-curvature="0"
     style="stroke-width:4.43757915" /><path
     d="m 233.11019,21.713272 c -0.40381,-0.19528 -1.0517,-0.13314 -1.50877,-0.27953 -0.43935,-0.15532 -0.55913,-0.83874 -1.23364,-1.14489 -0.67008,-0.31064 -2.23211,-0.46596 -3.56338,-0.46596 -12.63823,0 -12.38085,14.47095 -12.1856,18.85528 0.11094,2.56936 0.85642,5.14315 1.07833,6.78949 l -0.75441,8.23615 h 11.21377 v -1.95253 l -3.48794,-6.28362 1.26915,-0.60793 h 0.0182 v -3.55011 c -5.34772,-0.68782 -7.14937,-5.36503 -7.28694,-8.84854 l 0.0269,-1.16708 c 0.1021,-1.38452 0.48815,-2.43623 1.00733,-2.68029 4.16245,-0.37279 9.15473,-0.51918 12.67373,-3.43025 0.25291,3.05305 3.39918,5.24965 6.18599,5.44047 0.0225,0.19528 0.0485,0.39497 0.0711,0.59467 l -0.0355,1.16708 c -0.31506,4.16245 -3.15512,7.60158 -7.01137,8.79972 v 3.80301 l 1.00289,0.25291 -3.57225,6.76731 0.0399,1.69072 h 11.74184 l -0.57248,-6.54543 0.92301,-15.08777 c -0.004,0.004 0.21305,-7.33976 -6.03954,-10.35288 z"
     id="path926-8-3"
     inkscape:connector-curvature="0"
     style="stroke-width:4.43757915" /></g></svg>